<svg width="67" height="29" viewBox="0 0 67 29" fill="none" xmlns="http://www.w3.org/2000/svg">
<path fill-rule="evenodd" clip-rule="evenodd" d="M24.7731 8.75205L14.9419 0.37323H19.341L32.3837 11.5535H8.40157L20.9989 22.4254V16.8007H23.8584V28.6267L0.82959 8.75205H24.7731Z" fill="#66CE35"/>
<path d="M66.1702 28.0521H57.8577L62.0558 20.7841H57.8577V18.3036H66.1702L61.972 25.5717H66.1702V28.0521Z" fill="white"/>
<path d="M54.6465 28.0521C54.0322 28.0521 53.4551 27.9397 52.9152 27.7147C52.3753 27.4837 51.9005 27.1706 51.4909 26.7754C51.0876 26.3742 50.768 25.9091 50.5322 25.3802C50.3026 24.8513 50.1877 24.2859 50.1877 23.684V20.7841H48.9497V18.3037H50.1877V14.4006H52.7197V18.3037H56.5734V20.7841H52.7197V23.684C52.7197 23.9454 52.7693 24.1917 52.8686 24.4227C52.9679 24.6476 53.1044 24.8452 53.2782 25.0154C53.4519 25.1856 53.6567 25.3224 53.8926 25.4258C54.1284 25.5231 54.3797 25.5717 54.6465 25.5717H56.5734V28.0521H54.6465Z" fill="white"/>
<path d="M48.1399 15.6317C48.1399 15.8627 48.0933 16.0785 48.0002 16.2792C47.9134 16.4798 47.7924 16.6561 47.6372 16.8081C47.4821 16.954 47.299 17.0725 47.088 17.1637C46.8832 17.2488 46.6629 17.2914 46.4271 17.2914C46.1913 17.2914 45.9679 17.2488 45.7569 17.1637C45.5521 17.0725 45.3721 16.954 45.217 16.8081C45.068 16.6561 44.947 16.4798 44.854 16.2792C44.7671 16.0785 44.7236 15.8627 44.7236 15.6317C44.7236 15.4067 44.7671 15.194 44.854 14.9933C44.947 14.7866 45.068 14.6103 45.217 14.4644C45.3721 14.3124 45.5521 14.1939 45.7569 14.1088C45.9679 14.0176 46.1913 13.972 46.4271 13.972C46.6629 13.972 46.8832 14.0176 47.088 14.1088C47.299 14.1939 47.4821 14.3124 47.6372 14.4644C47.7924 14.6103 47.9134 14.7866 48.0002 14.9933C48.0933 15.194 48.1399 15.4067 48.1399 15.6317ZM47.7024 28.0521H45.1425V18.2854H47.7024V28.0521Z" fill="white"/>
<path d="M43.1971 28.0521H40.6372V14.4006H43.1971V28.0521Z" fill="white"/>
<path fill-rule="evenodd" clip-rule="evenodd" d="M36.774 27.6373C37.5373 27.3547 38.2293 26.9521 38.8498 26.4298V21.2126H36.2937V21.2116H33.6613V23.0994H36.2713V24.9734C35.9859 25.1147 35.6849 25.2253 35.3684 25.3052C35.0519 25.3851 34.7261 25.4251 34.391 25.4251C33.8077 25.4251 33.2585 25.3145 32.7434 25.0932C32.2345 24.872 31.7877 24.5709 31.403 24.1899C31.0182 23.8089 30.7141 23.3634 30.4907 22.8533C30.2673 22.3433 30.1556 21.7963 30.1556 21.2126C30.1556 20.6349 30.2673 20.0941 30.4907 19.5902C30.7141 19.0802 31.0182 18.6377 31.403 18.2629C31.7877 17.8819 32.2345 17.5808 32.7434 17.3595C33.2585 17.1383 33.8077 17.0277 34.391 17.0277C34.9744 17.0277 35.5298 17.1445 36.0573 17.378C36.5847 17.6053 37.0502 17.9218 37.4535 18.3274L38.8498 16.023C38.2293 15.5006 37.5373 15.1012 36.774 14.8247C36.0107 14.542 35.2164 14.4006 34.391 14.4006C33.758 14.4006 33.1468 14.4836 32.5572 14.6495C31.9739 14.8093 31.4278 15.0367 30.9189 15.3316C30.4101 15.6266 29.9446 15.983 29.5226 16.4009C29.1007 16.8126 28.7407 17.2735 28.4429 17.7836C28.145 18.2875 27.9123 18.8282 27.7447 19.4059C27.5834 19.9835 27.5027 20.5857 27.5027 21.2126C27.5027 21.8394 27.5834 22.4447 27.7447 23.0285C27.9123 23.6122 28.145 24.1592 28.4429 24.6692C28.7407 25.1731 29.1007 25.634 29.5226 26.0519C29.9446 26.4636 30.4101 26.82 30.9189 27.1211C31.4278 27.4161 31.9739 27.6435 32.5572 27.8032C33.1468 27.9692 33.758 28.0521 34.391 28.0521C35.2164 28.0521 36.0107 27.9139 36.774 27.6373Z" fill="white"/>
</svg>
