<?xml version="1.0" encoding="utf-8"?>
<!-- Generator: Adobe Illustrator 24.0.0, SVG Export Plug-In . SVG Version: 6.00 Build 0)  -->
<svg version="1.1" id="Layer_1" xmlns="http://www.w3.org/2000/svg" xmlns:xlink="http://www.w3.org/1999/xlink" x="0px" y="0px"
	 viewBox="0 0 496.1 496.1" style="enable-background:new 0 0 496.1 496.1;" xml:space="preserve">
<style type="text/css">
	.st0{fill-rule:evenodd;clip-rule:evenodd;fill:#3F3C3B;}
	.st1{fill-rule:evenodd;clip-rule:evenodd;fill:#5B261A;}
	.st2{fill-rule:evenodd;clip-rule:evenodd;fill:#593B0B;}
</style>
<g>
	<polygon class="st0" points="278.8,108.8 307.5,108.8 307.5,137.5 278.8,137.5 278.8,108.8 	"/>
	<polygon class="st0" points="358.6,108.8 387.2,108.8 387.2,137.5 358.6,137.5 358.6,108.8 	"/>
	<polygon class="st0" points="278.8,188.6 307.5,188.6 307.5,217.2 278.8,217.2 278.8,188.6 	"/>
	<polygon class="st0" points="358.6,188.6 387.2,188.6 387.2,217.2 358.6,217.2 358.6,188.6 	"/>
	<polygon class="st0" points="310.6,108.8 333,86.4 355.4,108.8 333,131.2 310.6,108.8 	"/>
	<polygon class="st0" points="310.6,217.2 333,194.9 355.4,217.2 333,239.6 310.6,217.2 	"/>
	<polygon class="st0" points="256.4,163 278.8,140.7 301.2,163 278.8,185.4 256.4,163 	"/>
	<polygon class="st0" points="364.9,163 387.2,140.7 409.6,163 387.2,185.4 364.9,163 	"/>
	<polygon class="st1" points="313.2,143.2 324.8,143.2 333,135 341.2,143.2 352.8,143.2 352.8,154.8 361.1,163 352.8,171.2 
		352.8,182.9 341.2,182.9 333,191.1 324.8,182.9 313.2,182.9 313.2,171.2 305,163 313.2,154.8 313.2,143.2 	"/>
	<polygon class="st0" points="108.8,108.8 137.5,108.8 137.5,137.5 108.8,137.5 108.8,108.8 	"/>
	<polygon class="st0" points="188.6,108.8 217.2,108.8 217.2,137.5 188.6,137.5 188.6,108.8 	"/>
	<polygon class="st0" points="108.8,188.6 137.5,188.6 137.5,217.2 108.8,217.2 108.8,188.6 	"/>
	<polygon class="st0" points="188.6,188.6 217.2,188.6 217.2,217.2 188.6,217.2 188.6,188.6 	"/>
	<polygon class="st0" points="140.7,108.8 163,86.4 185.4,108.8 163,131.2 140.7,108.8 	"/>
	<polygon class="st0" points="140.7,217.2 163,194.9 185.4,217.2 163,239.6 140.7,217.2 	"/>
	<polygon class="st0" points="86.4,163 108.8,140.7 131.2,163 108.8,185.4 86.4,163 	"/>
	<polygon class="st0" points="194.9,163 217.2,140.7 239.6,163 217.2,185.4 194.9,163 	"/>
	<polygon class="st1" points="143.2,143.2 154.8,143.2 163,135 171.2,143.2 182.9,143.2 182.9,154.8 191.1,163 182.9,171.2 
		182.9,182.9 171.2,182.9 163,191.1 154.8,182.9 143.2,182.9 143.2,171.2 135,163 143.2,154.8 143.2,143.2 	"/>
	<polygon class="st0" points="278.8,278.8 307.5,278.8 307.5,307.5 278.8,307.5 278.8,278.8 	"/>
	<polygon class="st0" points="358.6,278.8 387.2,278.8 387.2,307.5 358.6,307.5 358.6,278.8 	"/>
	<polygon class="st0" points="278.8,358.6 307.5,358.6 307.5,387.2 278.8,387.2 278.8,358.6 	"/>
	<polygon class="st0" points="358.6,358.6 387.2,358.6 387.2,387.2 358.6,387.2 358.6,358.6 	"/>
	<polygon class="st0" points="310.6,278.8 333,256.4 355.4,278.8 333,301.2 310.6,278.8 	"/>
	<polygon class="st0" points="310.6,387.2 333,364.9 355.4,387.2 333,409.6 310.6,387.2 	"/>
	<polygon class="st0" points="256.4,333 278.8,310.6 301.2,333 278.8,355.4 256.4,333 	"/>
	<polygon class="st0" points="364.9,333 387.2,310.6 409.6,333 387.2,355.4 364.9,333 	"/>
	<polygon class="st1" points="313.2,313.2 324.8,313.2 333,305 341.2,313.2 352.8,313.2 352.8,324.8 361.1,333 352.8,341.2 
		352.8,352.8 341.2,352.8 333,361 324.8,352.8 313.2,352.8 313.2,341.2 305,333 313.2,324.8 313.2,313.2 	"/>
	<polygon class="st0" points="108.8,278.8 137.5,278.8 137.5,307.5 108.8,307.5 108.8,278.8 	"/>
	<polygon class="st0" points="188.6,278.8 217.2,278.8 217.2,307.5 188.6,307.5 188.6,278.8 	"/>
	<polygon class="st0" points="108.8,358.6 137.5,358.6 137.5,387.2 108.8,387.2 108.8,358.6 	"/>
	<polygon class="st0" points="188.6,358.6 217.2,358.6 217.2,387.2 188.6,387.2 188.6,358.6 	"/>
	<polygon class="st0" points="140.7,278.8 163,256.4 185.4,278.8 163,301.2 140.7,278.8 	"/>
	<polygon class="st0" points="140.7,387.2 163,364.9 185.4,387.2 163,409.6 140.7,387.2 	"/>
	<polygon class="st0" points="86.4,333 108.8,310.6 131.2,333 108.8,355.4 86.4,333 	"/>
	<polygon class="st0" points="194.9,333 217.2,310.6 239.6,333 217.2,355.4 194.9,333 	"/>
	<polygon class="st1" points="143.2,313.2 154.8,313.2 163,305 171.2,313.2 182.9,313.2 182.9,324.8 191.1,333 182.9,341.2 
		182.9,352.8 171.2,352.8 163,361 154.8,352.8 143.2,352.8 143.2,341.2 135,333 143.2,324.8 143.2,313.2 	"/>
	<polygon class="st0" points="476.2,143.2 487.9,143.2 496.1,135 496.1,191.1 487.9,182.9 476.2,182.9 476.2,171.2 468,163 
		476.2,154.8 476.2,143.2 	"/>
	<path class="st0" d="M473.7,108.8l22.4-22.4v44.8L473.7,108.8L473.7,108.8z M441.9,108.8h28.7v28.7h-28.7V108.8L441.9,108.8z
		 M419.5,163l22.4-22.4l22.4,22.4l-22.4,22.4L419.5,163L419.5,163z M441.9,188.6h28.7v28.7h-28.7V188.6L441.9,188.6z M473.7,217.2
		l22.4-22.4v44.8L473.7,217.2L473.7,217.2z"/>
	<path class="st2" d="M492.7,193l-6.4-6.4h-10.1h-2v2v22.9L492.7,193L492.7,193z M472.5,182.9v-10.1l-6.4-6.4l-18.5,18.5h22.9h2
		V182.9L472.5,182.9z M470.5,141.2h-22.9l18.5,18.5l6.4-6.4v-10.1v-2H470.5L470.5,141.2z M474.2,114.6v22.9v2h2h10.1l6.4-6.4
		L474.2,114.6L474.2,114.6z"/>
	<polygon class="st0" points="476.2,313.2 487.9,313.2 496.1,305 496.1,361 487.9,352.8 476.2,352.8 476.2,341.2 468,333 
		476.2,324.8 476.2,313.2 	"/>
	<path class="st0" d="M473.7,278.8l22.4-22.4v44.8L473.7,278.8L473.7,278.8z M441.9,278.8h28.7v28.7h-28.7V278.8L441.9,278.8z
		 M419.5,333l22.4-22.4l22.4,22.4l-22.4,22.4L419.5,333L419.5,333z M441.9,358.6h28.7v28.7h-28.7V358.6L441.9,358.6z M473.7,387.2
		l22.4-22.4v44.8L473.7,387.2L473.7,387.2z"/>
	<path class="st2" d="M492.7,363l-6.4-6.4h-10.1h-2v2v22.9L492.7,363L492.7,363z M472.5,352.8v-10.1l-6.4-6.4l-18.5,18.5h22.9h2
		V352.8L472.5,352.8z M470.5,311.2h-22.9l18.5,18.5l6.4-6.4v-10.1v-2H470.5L470.5,311.2z M474.2,284.6v22.9v2h2h10.1l6.4-6.4
		L474.2,284.6L474.2,284.6z"/>
	<polygon class="st0" points="0,135 0,135 8.2,143.2 19.8,143.2 19.8,154.8 28,163 19.8,171.2 19.8,182.9 8.2,182.9 0,191.1 
		0,191.1 0,135 	"/>
	<path class="st0" d="M31.8,163l22.4-22.4L76.6,163l-22.4,22.4L31.8,163L31.8,163z M25.5,108.8h28.7v28.7H25.5V108.8L25.5,108.8z
		 M0,86.4l22.4,22.4L0,131.2V86.4L0,86.4z M0,194.9l22.4,22.4L0,239.6V194.9L0,194.9z M25.5,188.6h28.7v28.7H25.5V188.6L25.5,188.6z
		"/>
	<path class="st2" d="M21.8,114.6L3.3,133.1l6.4,6.4h10.1h2v-2V114.6L21.8,114.6z M25.5,141.2h-2v2v10.1l6.4,6.4l18.5-18.5H25.5
		L25.5,141.2z M29.9,166.4l-6.4,6.4v10.1v2h2h22.9L29.9,166.4L29.9,166.4z M19.8,186.6H9.7L3.3,193l18.5,18.5v-22.9v-2H19.8
		L19.8,186.6z"/>
	<polygon class="st0" points="0,305 0,305 8.2,313.2 19.8,313.2 19.8,324.8 28,333 19.8,341.2 19.8,352.8 8.2,352.8 0,361 0,361 
		0,305 	"/>
	<path class="st0" d="M31.8,333l22.4-22.4L76.6,333l-22.4,22.4L31.8,333L31.8,333z M25.5,278.8h28.7v28.7H25.5V278.8L25.5,278.8z
		 M0,256.4l22.4,22.4L0,301.2V256.4L0,256.4z M0,364.9l22.4,22.4L0,409.6V364.9L0,364.9z M25.5,358.6h28.7v28.7H25.5V358.6
		L25.5,358.6z"/>
	<path class="st2" d="M21.8,284.6L3.3,303.1l6.4,6.4h10.1h2v-2V284.6L21.8,284.6z M25.5,311.2h-2v2v10.1l6.4,6.4l18.5-18.5H25.5
		L25.5,311.2z M29.9,336.4l-6.4,6.4v10.1v2h2h22.9L29.9,336.4L29.9,336.4z M19.8,356.6H9.7L3.3,363l18.5,18.5v-22.9v-2H19.8
		L19.8,356.6z"/>
	<polygon class="st0" points="143.2,19.8 143.2,8.2 135,0 191.1,0 182.9,8.2 182.9,19.8 171.2,19.8 163,28 154.8,19.8 143.2,19.8 	
		"/>
	<path class="st0" d="M108.8,22.4L86.4,0h44.8L108.8,22.4L108.8,22.4z M108.8,54.2V25.5h28.7v28.7H108.8L108.8,54.2z M163,76.6
		l-22.4-22.4L163,31.8l22.4,22.4L163,76.6L163,76.6z M188.6,54.2V25.5h28.7v28.7H188.6L188.6,54.2z M217.2,22.4L194.9,0h44.8
		L217.2,22.4L217.2,22.4z"/>
	<path class="st2" d="M193,3.3l-6.4,6.4v10.1l0,2h2h22.9L193,3.3L193,3.3z M182.9,23.5l-10.1,0l-6.4,6.4l18.5,18.5V25.5v-2
		L182.9,23.5L182.9,23.5z M141.2,25.5v22.9l18.5-18.5l-6.4-6.4l-10.1,0l-2,0V25.5L141.2,25.5z M114.6,21.8h22.9h2l0-2l0-10.1
		l-6.4-6.4L114.6,21.8L114.6,21.8z"/>
	<polygon class="st0" points="313.2,19.8 313.2,8.2 305,0 361,0 352.8,8.2 352.8,19.8 341.2,19.8 333,28 324.8,19.8 313.2,19.8 	"/>
	<path class="st0" d="M278.8,22.4L256.4,0h44.8L278.8,22.4L278.8,22.4z M278.8,54.2V25.5h28.7v28.7H278.8L278.8,54.2z M333,76.6
		l-22.4-22.4L333,31.8l22.4,22.4L333,76.6L333,76.6z M358.6,54.2V25.5h28.7v28.7H358.6L358.6,54.2z M387.2,22.4L364.9,0h44.8
		L387.2,22.4L387.2,22.4z"/>
	<path class="st2" d="M363,3.3l-6.4,6.4v10.1v2h2h22.9L363,3.3L363,3.3z M352.8,23.5l-10.1,0l-6.4,6.4l18.5,18.5V25.5v-2L352.8,23.5
		L352.8,23.5z M311.2,25.5v22.9l18.5-18.5l-6.4-6.4h-10.1h-2V25.5L311.2,25.5z M284.6,21.8h22.9h2v-2V9.7l-6.4-6.4L284.6,21.8
		L284.6,21.8z"/>
	<polygon class="st0" points="135,496.1 135,496.1 143.2,487.9 143.2,476.2 154.8,476.2 163,468 171.2,476.2 182.9,476.2 
		182.9,487.9 191.1,496.1 191.1,496.1 135,496.1 	"/>
	<path class="st0" d="M163,464.2l-22.4-22.4l22.4-22.4l22.4,22.4L163,464.2L163,464.2z M108.8,470.5v-28.7h28.7v28.7H108.8
		L108.8,470.5z M86.4,496.1l22.4-22.4l22.4,22.4H86.4L86.4,496.1z M194.9,496.1l22.4-22.4l22.4,22.4H194.9L194.9,496.1z
		 M188.6,470.5v-28.7h28.7v28.7H188.6L188.6,470.5z"/>
	<path class="st2" d="M114.6,474.2l18.5,18.5l6.4-6.4l0-10.1l0-2h-2H114.6L114.6,474.2z M141.2,470.5v2l2,0l10.1,0l6.4-6.4
		l-18.5-18.5V470.5L141.2,470.5z M166.4,466.1l6.4,6.4l10.1,0l2,0v-2v-22.9L166.4,466.1L166.4,466.1z M186.6,476.2l0,10.1l6.4,6.4
		l18.5-18.5h-22.9h-2L186.6,476.2L186.6,476.2z"/>
	<polygon class="st0" points="305,496.1 305,496.1 313.2,487.9 313.2,476.2 324.8,476.2 333,468 341.2,476.2 352.8,476.2 
		352.8,487.9 361,496.1 361,496.1 305,496.1 	"/>
	<path class="st0" d="M333,464.2l-22.4-22.4l22.4-22.4l22.4,22.4L333,464.2L333,464.2z M278.8,470.5v-28.7h28.7v28.7H278.8
		L278.8,470.5z M256.4,496.1l22.4-22.4l22.4,22.4H256.4L256.4,496.1z M364.9,496.1l22.4-22.4l22.4,22.4H364.9L364.9,496.1z
		 M358.6,470.5v-28.7h28.7v28.7H358.6L358.6,470.5z"/>
	<path class="st2" d="M284.6,474.2l18.5,18.5l6.4-6.4v-10.1v-2l-2,0H284.6L284.6,474.2z M311.2,470.5v2h2h10.1l6.4-6.4l-18.5-18.5
		V470.5L311.2,470.5z M336.4,466.1l6.4,6.4l10.1,0l2,0v-2v-22.9L336.4,466.1L336.4,466.1z M356.6,476.2v10.1l6.4,6.4l18.5-18.5
		h-22.9l-2,0V476.2L356.6,476.2z"/>
	<polygon class="st0" points="441.9,25.5 470.5,25.5 470.5,54.2 441.9,54.2 441.9,25.5 	"/>
	<polygon class="st0" points="473.7,54.2 496.1,31.8 496.1,76.6 473.7,54.2 	"/>
	<polygon class="st0" points="464.2,0 441.9,22.4 419.5,0 464.2,0 	"/>
	<polygon class="st2" points="496.1,28 487.9,19.8 476.2,19.8 476.2,8.2 468,0 496.1,0 496.1,28 	"/>
	<polygon class="st0" points="441.9,441.9 470.5,441.9 470.5,470.5 441.9,470.5 441.9,441.9 	"/>
	<polygon class="st0" points="473.7,441.9 496.1,419.5 496.1,464.2 473.7,441.9 	"/>
	<polygon class="st0" points="419.5,496.1 441.9,473.7 464.2,496.1 419.5,496.1 	"/>
	<polygon class="st2" points="476.2,476.2 487.9,476.2 496.1,468 496.1,496.1 468,496.1 476.2,487.9 476.2,476.2 	"/>
	<polygon class="st0" points="25.5,25.5 54.2,25.5 54.2,54.2 25.5,54.2 25.5,25.5 	"/>
	<polygon class="st0" points="0,31.8 22.4,54.2 0,76.6 0,31.8 	"/>
	<polygon class="st0" points="76.6,0 54.2,22.4 31.8,0 76.6,0 	"/>
	<polygon class="st2" points="28,0 19.8,8.2 19.8,19.8 8.2,19.8 0,28 0,28 0,0 28,0 	"/>
	<polygon class="st0" points="25.5,441.9 54.2,441.9 54.2,470.5 25.5,470.5 25.5,441.9 	"/>
	<polygon class="st0" points="0,419.5 22.4,441.9 0,464.2 0,419.5 	"/>
	<polygon class="st0" points="31.8,496.1 54.2,473.7 76.6,496.1 31.8,496.1 	"/>
	<polygon class="st2" points="0,468 0,468 8.2,476.2 19.8,476.2 19.8,487.9 28,496.1 0,496.1 0,468 	"/>
	<polygon class="st0" points="228.2,228.2 239.8,228.2 248,220 256.2,228.2 267.8,228.2 267.8,239.8 276.1,248 267.8,256.2 
		267.8,267.8 256.2,267.8 248,276.1 239.8,267.8 228.2,267.8 228.2,256.2 220,248 228.2,239.8 228.2,228.2 	"/>
	<polygon class="st0" points="228.2,391.3 239.8,391.3 248,383 256.2,391.3 267.8,391.3 267.8,402.9 276.1,411.1 267.8,419.3 
		267.8,430.9 256.2,430.9 248,439.1 239.8,430.9 228.2,430.9 228.2,419.3 220,411.1 228.2,402.9 228.2,391.3 	"/>
	<polygon class="st0" points="228.2,65.2 239.8,65.2 248,57 256.2,65.2 267.8,65.2 267.8,76.8 276.1,85 267.8,93.2 267.8,104.8 
		256.2,104.8 248,113 239.8,104.8 228.2,104.8 228.2,93.2 220,85 228.2,76.8 228.2,65.2 	"/>
	<polygon class="st0" points="391.3,228.2 402.9,228.2 411.1,220 419.3,228.2 430.9,228.2 430.9,239.8 439.1,248 430.9,256.2 
		430.9,267.8 419.3,267.8 411.1,276.1 402.9,267.8 391.3,267.8 391.3,256.2 383,248 391.3,239.8 391.3,228.2 	"/>
	<polygon class="st0" points="391.3,391.3 402.9,391.3 411.1,383 419.3,391.3 430.9,391.3 430.9,402.9 439.1,411.1 430.9,419.3 
		430.9,430.9 419.3,430.9 411.1,439.1 402.9,430.9 391.3,430.9 391.3,419.3 383,411.1 391.3,402.9 391.3,391.3 	"/>
	<polygon class="st0" points="391.3,65.2 402.9,65.2 411.1,57 419.3,65.2 430.9,65.2 430.9,76.8 439.1,85 430.9,93.2 430.9,104.8 
		419.3,104.8 411.1,113 402.9,104.8 391.3,104.8 391.3,93.2 383,85 391.3,76.8 391.3,65.2 	"/>
	<polygon class="st0" points="65.2,228.2 76.8,228.2 85,220 93.2,228.2 104.8,228.2 104.8,239.8 113,248 104.8,256.2 104.8,267.8 
		93.2,267.8 85,276.1 76.8,267.8 65.2,267.8 65.2,256.2 57,248 65.2,239.8 65.2,228.2 	"/>
	<polygon class="st0" points="65.2,391.3 76.8,391.3 85,383 93.2,391.3 104.8,391.3 104.8,402.9 113,411.1 104.8,419.3 104.8,430.9 
		93.2,430.9 85,439.1 76.8,430.9 65.2,430.9 65.2,419.3 57,411.1 65.2,402.9 65.2,391.3 	"/>
	<polygon class="st0" points="65.2,65.2 76.8,65.2 85,57 93.2,65.2 104.8,65.2 104.8,76.8 113,85 104.8,93.2 104.8,104.8 
		93.2,104.8 85,113 76.8,104.8 65.2,104.8 65.2,93.2 57,85 65.2,76.8 65.2,65.2 	"/>
</g>
</svg>
